<svg style="height: 512px; width: 512px;" xmlns="http://www.w3.org/2000/svg" viewBox="0 0 512 512"><g class="" style="" transform="translate(0,0)"><g><path d="M19.09 16.96L19.09 170.7C73.51 193.5 202.7 200 259.8 189.4C241.7 295 293.8 366.7 290.9 415.9C288.9 449.2 268 454.9 277.4 485.2C282.3 500.8 470.4 490.3 478.5 490.1C486.2 489.8 483.9 470.9 465.2 462.9C430 447.8 385 452.2 355.1 415.9C345.4 401.3 362 235.6 365.1 174.5C365.9 158.8 369.8 95.59 305.1 74C225 47.24 123 27.32 19.09 16.96Z" class="selected" fill="#fff" fill-opacity="1"></path></g></g></svg>